<?xml version="1.0" encoding="UTF-8" standalone="no"?><svg xmlns="http://www.w3.org/2000/svg" xmlns:xlink="http://www.w3.org/1999/xlink" contentScriptType="application/ecmascript" contentStyleType="text/css" height="628px" preserveAspectRatio="none" style="width:725px;height:628px;" version="1.1" viewBox="0 0 725 628" width="725px" zoomAndPan="magnify"><defs/><g><!--MD5=[559db66c208d2736f857be4b8ed380a2]
class Editor--><rect fill="#FEFECE" height="227.2656" id="Editor" style="stroke: #A80036; stroke-width: 1.5;" width="363" x="229.5" y="8"/><ellipse cx="388.25" cy="24" fill="#ADD1B2" rx="11" ry="11" style="stroke: #A80036; stroke-width: 1.0;"/><path d="M391.2188,29.6406 Q390.6406,29.9375 390,30.0781 Q389.3594,30.2344 388.6563,30.2344 Q386.1563,30.2344 384.8281,28.5938 Q383.5156,26.9375 383.5156,23.8125 Q383.5156,20.6875 384.8281,19.0313 Q386.1563,17.375 388.6563,17.375 Q389.3594,17.375 390,17.5313 Q390.6563,17.6875 391.2188,17.9844 L391.2188,20.7031 Q390.5938,20.125 390,19.8594 Q389.4063,19.5781 388.7813,19.5781 Q387.4375,19.5781 386.75,20.6563 Q386.0625,21.7188 386.0625,23.8125 Q386.0625,25.9063 386.75,26.9844 Q387.4375,28.0469 388.7813,28.0469 Q389.4063,28.0469 390,27.7813 Q390.5938,27.5 391.2188,26.9219 L391.2188,29.6406 Z "/><text fill="#000000" font-family="sans-serif" font-size="12" lengthAdjust="spacingAndGlyphs" textLength="37" x="408.75" y="28.1543">Editor</text><line style="stroke: #A80036; stroke-width: 1.5;" x1="230.5" x2="591.5" y1="40" y2="40"/><rect fill="none" height="6" style="stroke: #C82930; stroke-width: 1.0;" width="6" x="237.5" y="48"/><text fill="#000000" font-family="sans-serif" font-size="11" lengthAdjust="spacingAndGlyphs" textLength="191" x="249.5" y="54.2104">buffers: HashMap&lt;usize, Buffer&gt;</text><rect fill="none" height="6" style="stroke: #C82930; stroke-width: 1.0;" width="6" x="237.5" y="60.8047"/><text fill="#000000" font-family="sans-serif" font-size="11" lengthAdjust="spacingAndGlyphs" textLength="189" x="249.5" y="67.0151">current_buffer_id: Option&lt;usize&gt;</text><rect fill="none" height="6" style="stroke: #C82930; stroke-width: 1.0;" width="6" x="237.5" y="73.6094"/><text fill="#000000" font-family="sans-serif" font-size="11" lengthAdjust="spacingAndGlyphs" textLength="198" x="249.5" y="79.8198">window_manager: WindowManager</text><rect fill="none" height="6" style="stroke: #C82930; stroke-width: 1.0;" width="6" x="237.5" y="86.4141"/><text fill="#000000" font-family="sans-serif" font-size="11" lengthAdjust="spacingAndGlyphs" textLength="70" x="249.5" y="92.6245">mode: Mode</text><rect fill="none" height="6" style="stroke: #C82930; stroke-width: 1.0;" width="6" x="237.5" y="99.2188"/><text fill="#000000" font-family="sans-serif" font-size="11" lengthAdjust="spacingAndGlyphs" textLength="105" x="249.5" y="105.4292">terminal: Terminal</text><rect fill="none" height="6" style="stroke: #C82930; stroke-width: 1.0;" width="6" x="237.5" y="112.0234"/><text fill="#000000" font-family="sans-serif" font-size="11" lengthAdjust="spacingAndGlyphs" textLength="29" x="249.5" y="118.2339">ui: UI</text><rect fill="none" height="6" style="stroke: #C82930; stroke-width: 1.0;" width="6" x="237.5" y="124.8281"/><text fill="#000000" font-family="sans-serif" font-size="11" lengthAdjust="spacingAndGlyphs" textLength="111" x="249.5" y="131.0386">config: EditorConfig</text><rect fill="none" height="6" style="stroke: #C82930; stroke-width: 1.0;" width="6" x="237.5" y="137.6328"/><text fill="#000000" font-family="sans-serif" font-size="11" lengthAdjust="spacingAndGlyphs" textLength="159" x="249.5" y="143.8433">theme_config: ThemeConfig</text><rect fill="none" height="6" style="stroke: #C82930; stroke-width: 1.0;" width="6" x="237.5" y="150.4375"/><text fill="#000000" font-family="sans-serif" font-size="11" lengthAdjust="spacingAndGlyphs" textLength="337" x="249.5" y="156.6479">async_syntax_highlighter: Option&lt;AsyncSyntaxHighlighter&gt;</text><rect fill="none" height="6" style="stroke: #C82930; stroke-width: 1.0;" width="6" x="237.5" y="163.2422"/><text fill="#000000" font-family="sans-serif" font-size="11" lengthAdjust="spacingAndGlyphs" textLength="233" x="249.5" y="169.4526">needs_syntax_refresh: Arc&lt;AtomicBool&gt;</text><rect fill="none" height="6" style="stroke: #C82930; stroke-width: 1.0;" width="6" x="237.5" y="176.0469"/><text fill="#000000" font-family="sans-serif" font-size="11" lengthAdjust="spacingAndGlyphs" textLength="254" x="249.5" y="182.2573">command_completion: CommandCompletion</text><line style="stroke: #A80036; stroke-width: 1.5;" x1="230.5" x2="591.5" y1="188.8516" y2="188.8516"/><ellipse cx="240.5" cy="199.8516" fill="#84BE84" rx="3" ry="3" style="stroke: #038048; stroke-width: 1.0;"/><text fill="#000000" font-family="sans-serif" font-size="11" lengthAdjust="spacingAndGlyphs" textLength="115" x="249.5" y="203.062">render(): Result&lt;()&gt;</text><ellipse cx="240.5" cy="212.6563" fill="#84BE84" rx="3" ry="3" style="stroke: #038048; stroke-width: 1.0;"/><text fill="#000000" font-family="sans-serif" font-size="11" lengthAdjust="spacingAndGlyphs" textLength="199" x="249.5" y="215.8667">create_buffer(path): Result&lt;usize&gt;</text><ellipse cx="240.5" cy="225.4609" fill="#84BE84" rx="3" ry="3" style="stroke: #038048; stroke-width: 1.0;"/><text fill="#000000" font-family="sans-serif" font-size="11" lengthAdjust="spacingAndGlyphs" textLength="196" x="249.5" y="228.6714">handle_key_event(key): Result&lt;()&gt;</text><!--MD5=[9e9737bed61a6b1d6b48b2052db5d4e5]
class Buffer--><rect fill="#FEFECE" height="214.4609" id="Buffer" style="stroke: #A80036; stroke-width: 1.5;" width="236" x="6" y="295"/><ellipse cx="101.25" cy="311" fill="#ADD1B2" rx="11" ry="11" style="stroke: #A80036; stroke-width: 1.0;"/><path d="M104.2188,316.6406 Q103.6406,316.9375 103,317.0781 Q102.3594,317.2344 101.6563,317.2344 Q99.1563,317.2344 97.8281,315.5938 Q96.5156,313.9375 96.5156,310.8125 Q96.5156,307.6875 97.8281,306.0313 Q99.1563,304.375 101.6563,304.375 Q102.3594,304.375 103,304.5313 Q103.6563,304.6875 104.2188,304.9844 L104.2188,307.7031 Q103.5938,307.125 103,306.8594 Q102.4063,306.5781 101.7813,306.5781 Q100.4375,306.5781 99.75,307.6563 Q99.0625,308.7188 99.0625,310.8125 Q99.0625,312.9063 99.75,313.9844 Q100.4375,315.0469 101.7813,315.0469 Q102.4063,315.0469 103,314.7813 Q103.5938,314.5 104.2188,313.9219 L104.2188,316.6406 Z "/><text fill="#000000" font-family="sans-serif" font-size="12" lengthAdjust="spacingAndGlyphs" textLength="37" x="121.75" y="315.1543">Buffer</text><line style="stroke: #A80036; stroke-width: 1.5;" x1="7" x2="241" y1="327" y2="327"/><ellipse cx="17" cy="338" fill="none" rx="3" ry="3" style="stroke: #038048; stroke-width: 1.0;"/><text fill="#000000" font-family="sans-serif" font-size="11" lengthAdjust="spacingAndGlyphs" textLength="47" x="26" y="341.2104">id: usize</text><ellipse cx="17" cy="350.8047" fill="none" rx="3" ry="3" style="stroke: #038048; stroke-width: 1.0;"/><text fill="#000000" font-family="sans-serif" font-size="11" lengthAdjust="spacingAndGlyphs" textLength="155" x="26" y="354.0151">file_path: Option&lt;PathBuf&gt;</text><ellipse cx="17" cy="363.6094" fill="none" rx="3" ry="3" style="stroke: #038048; stroke-width: 1.0;"/><text fill="#000000" font-family="sans-serif" font-size="11" lengthAdjust="spacingAndGlyphs" textLength="107" x="26" y="366.8198">lines: Vec&lt;String&gt;</text><ellipse cx="17" cy="376.4141" fill="none" rx="3" ry="3" style="stroke: #038048; stroke-width: 1.0;"/><text fill="#000000" font-family="sans-serif" font-size="11" lengthAdjust="spacingAndGlyphs" textLength="90" x="26" y="379.6245">cursor: Position</text><ellipse cx="17" cy="389.2188" fill="none" rx="3" ry="3" style="stroke: #038048; stroke-width: 1.0;"/><text fill="#000000" font-family="sans-serif" font-size="11" lengthAdjust="spacingAndGlyphs" textLength="166" x="26" y="392.4292">selection: Option&lt;Selection&gt;</text><ellipse cx="17" cy="402.0234" fill="none" rx="3" ry="3" style="stroke: #038048; stroke-width: 1.0;"/><text fill="#000000" font-family="sans-serif" font-size="11" lengthAdjust="spacingAndGlyphs" textLength="210" x="26" y="405.2339">undo_stack: VecDeque&lt;BufferDelta&gt;</text><ellipse cx="17" cy="414.8281" fill="none" rx="3" ry="3" style="stroke: #038048; stroke-width: 1.0;"/><text fill="#000000" font-family="sans-serif" font-size="11" lengthAdjust="spacingAndGlyphs" textLength="208" x="26" y="418.0386">redo_stack: VecDeque&lt;BufferDelta&gt;</text><ellipse cx="17" cy="427.6328" fill="none" rx="3" ry="3" style="stroke: #038048; stroke-width: 1.0;"/><text fill="#000000" font-family="sans-serif" font-size="11" lengthAdjust="spacingAndGlyphs" textLength="192" x="26" y="430.8433">marks: HashMap&lt;char, Position&gt;</text><line style="stroke: #A80036; stroke-width: 1.5;" x1="7" x2="241" y1="437.4375" y2="437.4375"/><ellipse cx="17" cy="448.4375" fill="#84BE84" rx="3" ry="3" style="stroke: #038048; stroke-width: 1.0;"/><text fill="#000000" font-family="sans-serif" font-size="11" lengthAdjust="spacingAndGlyphs" textLength="85" x="26" y="451.6479">insert_char(ch)</text><ellipse cx="17" cy="461.2422" fill="#84BE84" rx="3" ry="3" style="stroke: #038048; stroke-width: 1.0;"/><text fill="#000000" font-family="sans-serif" font-size="11" lengthAdjust="spacingAndGlyphs" textLength="179" x="26" y="464.4526">delete_char_at_cursor() -&gt; bool</text><ellipse cx="17" cy="474.0469" fill="#84BE84" rx="3" ry="3" style="stroke: #038048; stroke-width: 1.0;"/><text fill="#000000" font-family="sans-serif" font-size="11" lengthAdjust="spacingAndGlyphs" textLength="205" x="26" y="477.2573">delete_char_before_cursor() -&gt; bool</text><ellipse cx="17" cy="486.8516" fill="#84BE84" rx="3" ry="3" style="stroke: #038048; stroke-width: 1.0;"/><text fill="#000000" font-family="sans-serif" font-size="11" lengthAdjust="spacingAndGlyphs" textLength="81" x="26" y="490.062">undo() -&gt; bool</text><ellipse cx="17" cy="499.6563" fill="#84BE84" rx="3" ry="3" style="stroke: #038048; stroke-width: 1.0;"/><text fill="#000000" font-family="sans-serif" font-size="11" lengthAdjust="spacingAndGlyphs" textLength="79" x="26" y="502.8667">redo() -&gt; bool</text><!--MD5=[df76e760f2062188d44f98c21a88999b]
class UI--><rect fill="#FEFECE" height="112.0234" id="UI" style="stroke: #A80036; stroke-width: 1.5;" width="267" x="277.5" y="346"/><ellipse cx="400.75" cy="362" fill="#ADD1B2" rx="11" ry="11" style="stroke: #A80036; stroke-width: 1.0;"/><path d="M403.7188,367.6406 Q403.1406,367.9375 402.5,368.0781 Q401.8594,368.2344 401.1563,368.2344 Q398.6563,368.2344 397.3281,366.5938 Q396.0156,364.9375 396.0156,361.8125 Q396.0156,358.6875 397.3281,357.0313 Q398.6563,355.375 401.1563,355.375 Q401.8594,355.375 402.5,355.5313 Q403.1563,355.6875 403.7188,355.9844 L403.7188,358.7031 Q403.0938,358.125 402.5,357.8594 Q401.9063,357.5781 401.2813,357.5781 Q399.9375,357.5781 399.25,358.6563 Q398.5625,359.7188 398.5625,361.8125 Q398.5625,363.9063 399.25,364.9844 Q399.9375,366.0469 401.2813,366.0469 Q401.9063,366.0469 402.5,365.7813 Q403.0938,365.5 403.7188,364.9219 L403.7188,367.6406 Z "/><text fill="#000000" font-family="sans-serif" font-size="12" lengthAdjust="spacingAndGlyphs" textLength="12" x="421.25" y="366.1543">UI</text><line style="stroke: #A80036; stroke-width: 1.5;" x1="278.5" x2="543.5" y1="378" y2="378"/><ellipse cx="288.5" cy="389" fill="none" rx="3" ry="3" style="stroke: #038048; stroke-width: 1.0;"/><text fill="#000000" font-family="sans-serif" font-size="11" lengthAdjust="spacingAndGlyphs" textLength="145" x="297.5" y="392.2104">show_line_numbers: bool</text><ellipse cx="288.5" cy="401.8047" fill="none" rx="3" ry="3" style="stroke: #038048; stroke-width: 1.0;"/><text fill="#000000" font-family="sans-serif" font-size="11" lengthAdjust="spacingAndGlyphs" textLength="167" x="297.5" y="405.0151">show_relative_numbers: bool</text><ellipse cx="288.5" cy="414.6094" fill="none" rx="3" ry="3" style="stroke: #038048; stroke-width: 1.0;"/><text fill="#000000" font-family="sans-serif" font-size="11" lengthAdjust="spacingAndGlyphs" textLength="131" x="297.5" y="417.8198">show_cursor_line: bool</text><ellipse cx="288.5" cy="427.4141" fill="none" rx="3" ry="3" style="stroke: #038048; stroke-width: 1.0;"/><text fill="#000000" font-family="sans-serif" font-size="11" lengthAdjust="spacingAndGlyphs" textLength="104" x="297.5" y="430.6245">show_marks: bool</text><line style="stroke: #A80036; stroke-width: 1.5;" x1="278.5" x2="543.5" y1="437.2188" y2="437.2188"/><ellipse cx="288.5" cy="448.2188" fill="#84BE84" rx="3" ry="3" style="stroke: #038048; stroke-width: 1.0;"/><text fill="#000000" font-family="sans-serif" font-size="11" lengthAdjust="spacingAndGlyphs" textLength="241" x="297.5" y="451.4292">compute_gutter_width(total_lines) -&gt; usize</text><!--MD5=[59a098febd5e06c2d80067f6d72ec339]
class WindowManager--><rect fill="#FEFECE" height="48" id="WindowManager" style="stroke: #A80036; stroke-width: 1.5;" width="134" x="580" y="378"/><ellipse cx="595" cy="394" fill="#ADD1B2" rx="11" ry="11" style="stroke: #A80036; stroke-width: 1.0;"/><path d="M597.9688,399.6406 Q597.3906,399.9375 596.75,400.0781 Q596.1094,400.2344 595.4063,400.2344 Q592.9063,400.2344 591.5781,398.5938 Q590.2656,396.9375 590.2656,393.8125 Q590.2656,390.6875 591.5781,389.0313 Q592.9063,387.375 595.4063,387.375 Q596.1094,387.375 596.75,387.5313 Q597.4063,387.6875 597.9688,387.9844 L597.9688,390.7031 Q597.3438,390.125 596.75,389.8594 Q596.1563,389.5781 595.5313,389.5781 Q594.1875,389.5781 593.5,390.6563 Q592.8125,391.7188 592.8125,393.8125 Q592.8125,395.9063 593.5,396.9844 Q594.1875,398.0469 595.5313,398.0469 Q596.1563,398.0469 596.75,397.7813 Q597.3438,397.5 597.9688,396.9219 L597.9688,399.6406 Z "/><text fill="#000000" font-family="sans-serif" font-size="12" lengthAdjust="spacingAndGlyphs" textLength="102" x="609" y="398.1543">WindowManager</text><line style="stroke: #A80036; stroke-width: 1.5;" x1="581" x2="713" y1="410" y2="410"/><line style="stroke: #A80036; stroke-width: 1.5;" x1="581" x2="713" y1="418" y2="418"/><!--MD5=[a64a835c3d62471a77f615251fdde58a]
class Position--><rect fill="#FEFECE" height="48" id="Position" style="stroke: #A80036; stroke-width: 1.5;" width="82" x="83" y="569"/><ellipse cx="98" cy="585" fill="#ADD1B2" rx="11" ry="11" style="stroke: #A80036; stroke-width: 1.0;"/><path d="M100.9688,590.6406 Q100.3906,590.9375 99.75,591.0781 Q99.1094,591.2344 98.4063,591.2344 Q95.9063,591.2344 94.5781,589.5938 Q93.2656,587.9375 93.2656,584.8125 Q93.2656,581.6875 94.5781,580.0313 Q95.9063,578.375 98.4063,578.375 Q99.1094,578.375 99.75,578.5313 Q100.4063,578.6875 100.9688,578.9844 L100.9688,581.7031 Q100.3438,581.125 99.75,580.8594 Q99.1563,580.5781 98.5313,580.5781 Q97.1875,580.5781 96.5,581.6563 Q95.8125,582.7188 95.8125,584.8125 Q95.8125,586.9063 96.5,587.9844 Q97.1875,589.0469 98.5313,589.0469 Q99.1563,589.0469 99.75,588.7813 Q100.3438,588.5 100.9688,587.9219 L100.9688,590.6406 Z "/><text fill="#000000" font-family="sans-serif" font-size="12" lengthAdjust="spacingAndGlyphs" textLength="50" x="112" y="589.1543">Position</text><line style="stroke: #A80036; stroke-width: 1.5;" x1="84" x2="164" y1="601" y2="601"/><line style="stroke: #A80036; stroke-width: 1.5;" x1="84" x2="164" y1="609" y2="609"/><!--MD5=[1c11d3317aa04e2e668d75e37e04d170]
reverse link Editor to Buffer--><path d="M285.16,244.61 C267.96,261.31 250.41,278.34 233.52,294.72 " fill="none" id="Editor&lt;-Buffer" style="stroke: #A80036; stroke-width: 1.0;"/><polygon fill="#FFFFFF" points="294.68,235.38,287.5888,236.6897,286.0704,243.7391,293.1616,242.4294,294.68,235.38" style="stroke: #A80036; stroke-width: 1.0;"/><text fill="#000000" font-family="sans-serif" font-size="13" lengthAdjust="spacingAndGlyphs" textLength="8" x="278.972" y="255.2185">1</text><text fill="#000000" font-family="sans-serif" font-size="13" lengthAdjust="spacingAndGlyphs" textLength="7" x="233.6432" y="284.0641">*</text><!--MD5=[8f57086fa07365fc2bb141cba0904d7f]
reverse link Editor to WindowManager--><path d="M519.71,245.38 C534.04,261.96 548.45,278.83 562,295 C585.48,323.02 611.69,355.97 628.71,377.61 " fill="none" id="Editor&lt;-WindowManager" style="stroke: #A80036; stroke-width: 1.0;"/><polygon fill="#FFFFFF" points="510.8,235.1,511.6993,242.2548,518.6496,244.1765,517.7503,237.0217,510.8,235.1" style="stroke: #A80036; stroke-width: 1.0;"/><text fill="#000000" font-family="sans-serif" font-size="13" lengthAdjust="spacingAndGlyphs" textLength="8" x="509.2366" y="255.2988">1</text><text fill="#000000" font-family="sans-serif" font-size="13" lengthAdjust="spacingAndGlyphs" textLength="8" x="615.2768" y="366.9199">1</text><!--MD5=[e5ada935b5c8cf86dffb386dbcd16d47]
reverse link Editor to UI--><path d="M411,248.38 C411,282.48 411,317.66 411,345.64 " fill="none" id="Editor&lt;-UI" style="stroke: #A80036; stroke-width: 1.0;"/><polygon fill="#FFFFFF" points="411,235.38,407,241.38,411,247.38,415,241.38,411,235.38" style="stroke: #A80036; stroke-width: 1.0;"/><text fill="#000000" font-family="sans-serif" font-size="13" lengthAdjust="spacingAndGlyphs" textLength="8" x="402.7438" y="255.2185">1</text><text fill="#000000" font-family="sans-serif" font-size="13" lengthAdjust="spacingAndGlyphs" textLength="8" x="402.5125" y="334.9306">1</text><!--MD5=[dd3decc9dc0d60a156ced67123d4772f]
reverse link Buffer to Position--><path d="M124,522.17 C124,539.88 124,556.34 124,568.83 " fill="none" id="Buffer&lt;-Position" style="stroke: #A80036; stroke-width: 1.0;"/><polygon fill="#FFFFFF" points="124,509.1,120,515.1,124,521.1,128,515.1,124,509.1" style="stroke: #A80036; stroke-width: 1.0;"/><text fill="#000000" font-family="sans-serif" font-size="13" lengthAdjust="spacingAndGlyphs" textLength="7" x="116.743" y="529.5708">*</text><text fill="#000000" font-family="sans-serif" font-size="13" lengthAdjust="spacingAndGlyphs" textLength="8" x="114.975" y="557.7985">1</text><!--MD5=[2e44e53c2ca981cd1bc47fbac149c08d]
@startuml
skinparam shadowing false

class Editor {
  - buffers: HashMap<usize, Buffer>
  - current_buffer_id: Option<usize>
  - window_manager: WindowManager
  - mode: Mode
  - terminal: Terminal
  - ui: UI
  - config: EditorConfig
  - theme_config: ThemeConfig
  - async_syntax_highlighter: Option<AsyncSyntaxHighlighter>
  - needs_syntax_refresh: Arc<AtomicBool>
  - command_completion: CommandCompletion
  + render(): Result<()>
  + create_buffer(path): Result<usize>
  + handle_key_event(key): Result<()>
}

class Buffer {
  + id: usize
  + file_path: Option<PathBuf>
  + lines: Vec<String>
  + cursor: Position
  + selection: Option<Selection>
  + undo_stack: VecDeque<BufferDelta>
  + redo_stack: VecDeque<BufferDelta>
  + marks: HashMap<char, Position>
  + insert_char(ch)
  + delete_char_at_cursor() -> bool
  + delete_char_before_cursor() -> bool
  + undo() -> bool
  + redo() -> bool
}

class UI {
  + show_line_numbers: bool
  + show_relative_numbers: bool
  + show_cursor_line: bool
  + show_marks: bool
  + compute_gutter_width(total_lines) -> usize
}

Editor "1" o- - "*" Buffer
Editor "1" o- - "1" WindowManager
Editor "1" o- - "1" UI
Buffer "*" o- - "1" Position
@enduml

PlantUML version 1.2020.02(Sun Mar 01 10:22:07 UTC 2020)
(GPL source distribution)
Java Runtime: OpenJDK Runtime Environment
JVM: OpenJDK 64-Bit Server VM
Java Version: 17.0.16+8
Operating System: Linux
Default Encoding: UTF-8
Language: en
Country: null
--></g></svg>