<?xml version="1.0" encoding="UTF-8" standalone="no"?><svg xmlns="http://www.w3.org/2000/svg" xmlns:xlink="http://www.w3.org/1999/xlink" contentScriptType="application/ecmascript" contentStyleType="text/css" height="512px" preserveAspectRatio="none" style="width:1555px;height:512px;" version="1.1" viewBox="0 0 1555 512" width="1555px" zoomAndPan="magnify"><defs/><g><!--MD5=[1771eb6d9cfc307f7a851ef41b77a3d2]
cluster oxidized--><polygon fill="#FFFFFF" points="22,24,94,24,101,46.2969,1533,46.2969,1533,500,22,500,22,24" style="stroke: #000000; stroke-width: 1.5;"/><line style="stroke: #000000; stroke-width: 1.5;" x1="22" x2="101" y1="46.2969" y2="46.2969"/><text fill="#000000" font-family="sans-serif" font-size="14" font-weight="bold" lengthAdjust="spacingAndGlyphs" textLength="66" x="26" y="38.9951">oxidized</text><!--MD5=[4b59d80f3148529ef090aa02783d4733]
entity main.rs--><rect fill="#FEFECE" height="36.2969" style="stroke: #A80036; stroke-width: 1.5;" width="70" x="535" y="59"/><rect fill="#FEFECE" height="5" style="stroke: #A80036; stroke-width: 1.5;" width="10" x="530" y="64"/><rect fill="#FEFECE" height="5" style="stroke: #A80036; stroke-width: 1.5;" width="10" x="530" y="85.2969"/><text fill="#000000" font-family="sans-serif" font-size="14" lengthAdjust="spacingAndGlyphs" textLength="50" x="545" y="81.9951">main.rs</text><ellipse cx="569.7711" cy="172.7542" fill="#FEFECE" rx="76.7711" ry="17.7542" style="stroke: #A80036; stroke-width: 1.5;"/><text fill="#000000" font-family="sans-serif" font-size="14" lengthAdjust="spacingAndGlyphs" textLength="123" x="508.2711" y="177.4027">EventDrivenEditor</text><ellipse cx="100.966" cy="271.9932" fill="#FEFECE" rx="62.966" ry="14.9932" style="stroke: #A80036; stroke-width: 1.5;"/><text fill="#000000" font-family="sans-serif" font-size="14" lengthAdjust="spacingAndGlyphs" textLength="88" x="56.966" y="276.6416">Input Thread</text><ellipse cx="290.8872" cy="271.7774" fill="#FEFECE" rx="91.8872" ry="20.7774" style="stroke: #A80036; stroke-width: 1.5;"/><text fill="#000000" font-family="sans-serif" font-size="14" lengthAdjust="spacingAndGlyphs" textLength="158" x="211.8872" y="276.4259">Config Watcher Thread</text><ellipse cx="485.2254" cy="272.2451" fill="#FEFECE" rx="66.7254" ry="15.7451" style="stroke: #A80036; stroke-width: 1.5;"/><text fill="#000000" font-family="sans-serif" font-size="14" lengthAdjust="spacingAndGlyphs" textLength="98" x="436.2254" y="276.8935">Syntax Thread</text><ellipse cx="656.06" cy="272.212" fill="#FEFECE" rx="69.06" ry="16.212" style="stroke: #A80036; stroke-width: 1.5;"/><text fill="#000000" font-family="sans-serif" font-size="14" lengthAdjust="spacingAndGlyphs" textLength="104" x="604.06" y="276.8604">Render Thread</text><ellipse cx="90.9975" cy="374.0236" fill="#FEFECE" rx="52.4975" ry="14.5236" style="stroke: #A80036; stroke-width: 1.5;"/><text fill="#000000" font-family="sans-serif" font-size="14" lengthAdjust="spacingAndGlyphs" textLength="70" x="55.9975" y="378.6721">Event Bus</text><ellipse cx="828.7843" cy="272.0236" fill="#FEFECE" rx="31.2843" ry="14.5236" style="stroke: #A80036; stroke-width: 1.5;"/><text fill="#000000" font-family="sans-serif" font-size="14" lengthAdjust="spacingAndGlyphs" textLength="40" x="808.7843" y="276.6721">Editor</text><ellipse cx="1455.8007" cy="374.0601" fill="#FEFECE" rx="60.8007" ry="14.5601" style="stroke: #A80036; stroke-width: 1.5;"/><text fill="#000000" font-family="sans-serif" font-size="14" lengthAdjust="spacingAndGlyphs" textLength="82" x="1414.8007" y="378.7086">UI Renderer</text><ellipse cx="1456.2193" cy="469.5236" fill="#FEFECE" rx="44.7193" ry="14.5236" style="stroke: #A80036; stroke-width: 1.5;"/><text fill="#000000" font-family="sans-serif" font-size="14" lengthAdjust="spacingAndGlyphs" textLength="59" x="1426.7193" y="474.1721">Terminal</text><ellipse cx="252.0637" cy="374.0127" fill="#FEFECE" rx="73.0637" ry="17.0127" style="stroke: #A80036; stroke-width: 1.5;"/><text fill="#000000" font-family="sans-serif" font-size="14" lengthAdjust="spacingAndGlyphs" textLength="114" x="195.0637" y="378.6612">WindowManager</text><ellipse cx="391.9914" cy="374.0236" fill="#FEFECE" rx="31.9914" ry="14.5236" style="stroke: #A80036; stroke-width: 1.5;"/><text fill="#000000" font-family="sans-serif" font-size="14" lengthAdjust="spacingAndGlyphs" textLength="41" x="371.4914" y="378.6721">Buffer</text><ellipse cx="524.9597" cy="374.0919" fill="#FEFECE" rx="65.9597" ry="15.5919" style="stroke: #A80036; stroke-width: 1.5;"/><text fill="#000000" font-family="sans-serif" font-size="14" lengthAdjust="spacingAndGlyphs" textLength="96" x="476.9597" y="378.7404">SearchEngine</text><ellipse cx="718.7771" cy="373.9554" fill="#FEFECE" rx="92.7771" ry="20.9554" style="stroke: #A80036; stroke-width: 1.5;"/><text fill="#000000" font-family="sans-serif" font-size="14" lengthAdjust="spacingAndGlyphs" textLength="160" x="638.7771" y="378.6039">AsyncSyntaxHighlighter</text><ellipse cx="934.8518" cy="374.0704" fill="#FEFECE" rx="88.3518" ry="20.0704" style="stroke: #A80036; stroke-width: 1.5;"/><text fill="#000000" font-family="sans-serif" font-size="14" lengthAdjust="spacingAndGlyphs" textLength="150" x="859.8518" y="378.7188">CommandCompletion</text><ellipse cx="1126.8859" cy="373.9772" fill="#FEFECE" rx="67.8859" ry="15.9772" style="stroke: #A80036; stroke-width: 1.5;"/><text fill="#000000" font-family="sans-serif" font-size="14" lengthAdjust="spacingAndGlyphs" textLength="101" x="1076.3859" y="378.6256">ConfigWatcher</text><ellipse cx="1294.8237" cy="373.8647" fill="#FEFECE" rx="64.8237" ry="15.3647" style="stroke: #A80036; stroke-width: 1.5;"/><text fill="#000000" font-family="sans-serif" font-size="14" lengthAdjust="spacingAndGlyphs" textLength="93" x="1248.3237" y="378.5132">ThemeConfig</text><!--MD5=[a8938fe31bddbc892ab7a6f4b1b5d4ae]
link main.rs to EventDrivenEditor--><path d="M570,95.24 C570,110.48 570,132.81 570,149.46 " fill="none" id="main.rs-&gt;EventDrivenEditor" style="stroke: #A80036; stroke-width: 1.0;"/><polygon fill="#A80036" points="570,154.87,574,145.87,570,149.87,566,145.87,570,154.87" style="stroke: #A80036; stroke-width: 1.0;"/><!--MD5=[26ff3e256fb50b642d59b4f4b828c5c8]
link EventDrivenEditor to Input Thread--><path d="M511.32,184.77 C435.18,198.95 298.31,225.12 182,251 C170.72,253.51 158.6,256.4 147.27,259.19 " fill="none" id="EventDrivenEditor-&gt;Input Thread" style="stroke: #A80036; stroke-width: 1.0; stroke-dasharray: 7.0,7.0;"/><polygon fill="#A80036" points="142.12,260.46,151.8167,262.1846,146.9741,259.2608,149.8979,254.4181,142.12,260.46" style="stroke: #A80036; stroke-width: 1.0;"/><!--MD5=[f77ac4ab39dfd9fa9ad3b1328afa8e16]
link EventDrivenEditor to Config Watcher Thread--><path d="M528.83,188.31 C479.98,205.3 398.4,233.66 344.65,252.35 " fill="none" id="EventDrivenEditor-&gt;Config Watcher Thread" style="stroke: #A80036; stroke-width: 1.0; stroke-dasharray: 7.0,7.0;"/><polygon fill="#A80036" points="339.86,254.01,349.6728,254.8521,344.586,252.3774,347.0606,247.2906,339.86,254.01" style="stroke: #A80036; stroke-width: 1.0;"/><!--MD5=[a02dc4d5408c099ef948a50334fb5ade]
link EventDrivenEditor to Syntax Thread--><path d="M555.19,190.9 C540.07,208.15 516.66,234.87 501.09,252.64 " fill="none" id="EventDrivenEditor-&gt;Syntax Thread" style="stroke: #A80036; stroke-width: 1.0; stroke-dasharray: 7.0,7.0;"/><polygon fill="#A80036" points="497.7,256.51,506.6357,252.3684,500.9915,252.7462,500.6137,247.102,497.7,256.51" style="stroke: #A80036; stroke-width: 1.0;"/><!--MD5=[cfcb4053ea42d138cdfb004933d0bda1]
link EventDrivenEditor to Render Thread--><path d="M584.98,190.9 C600.19,208.05 623.69,234.56 639.45,252.33 " fill="none" id="EventDrivenEditor-&gt;Render Thread" style="stroke: #A80036; stroke-width: 1.0; stroke-dasharray: 7.0,7.0;"/><polygon fill="#A80036" points="642.88,256.2,639.9082,246.8102,639.5653,252.4567,633.9188,252.1138,642.88,256.2" style="stroke: #A80036; stroke-width: 1.0;"/><!--MD5=[a1031763af929fc532008fcc89da9ba8]
link Input Thread to Event Bus--><path d="M99.57,287.33 C97.81,304.9 94.83,334.74 92.88,354.16 " fill="none" id="Input Thread-&gt;Event Bus" style="stroke: #A80036; stroke-width: 1.0;"/><polygon fill="#A80036" points="92.37,359.34,97.2506,350.7855,92.8703,354.3651,89.2907,349.9849,92.37,359.34" style="stroke: #A80036; stroke-width: 1.0;"/><!--MD5=[94aad88861494c57e9c9f739f988803e]
link Config Watcher Thread to Event Bus--><path d="M254.32,291.34 C215.46,310.77 154.95,341.03 119.52,358.74 " fill="none" id="Config Watcher Thread-&gt;Event Bus" style="stroke: #A80036; stroke-width: 1.0;"/><polygon fill="#A80036" points="114.9,361.05,124.7381,360.5902,119.3693,358.8082,121.1513,353.4394,114.9,361.05" style="stroke: #A80036; stroke-width: 1.0;"/><!--MD5=[78eb1d65a83f70fb48eb489498b543cf]
link Syntax Thread to Event Bus--><path d="M440.48,283.55 C378.08,298.45 261.13,326.77 162,353 C151.79,355.7 140.78,358.74 130.56,361.62 " fill="none" id="Syntax Thread-&gt;Event Bus" style="stroke: #A80036; stroke-width: 1.0;"/><polygon fill="#A80036" points="125.61,363.01,135.3615,364.3913,130.4187,361.6402,133.1698,356.6973,125.61,363.01" style="stroke: #A80036; stroke-width: 1.0;"/><!--MD5=[05cfb64a9d9ea528dfa87f145c50aa2b]
link Event Bus to EventDrivenEditor--><path d="M123.59,362.55 C135.56,359.05 149.3,355.43 162,353 C289.49,328.65 656.06,389.38 743,293 C785.48,245.91 690.33,207.87 624.99,188.32 " fill="none" id="Event Bus-&gt;EventDrivenEditor" style="stroke: #A80036; stroke-width: 1.0;"/><polygon fill="#A80036" points="619.95,186.83,627.4525,193.2106,624.7461,188.2431,629.7136,185.5368,619.95,186.83" style="stroke: #A80036; stroke-width: 1.0;"/><!--MD5=[a6e0abd201a1172a2495a4c03b9f59c0]
link EventDrivenEditor to Editor--><path d="M609.06,188.63 C661.69,208.34 754.12,242.96 800.61,260.37 " fill="none" id="EventDrivenEditor-&gt;Editor" style="stroke: #A80036; stroke-width: 1.0;"/><polygon fill="#A80036" points="805.51,262.2,798.4875,255.2946,800.8284,260.4444,795.6785,262.7852,805.51,262.2" style="stroke: #A80036; stroke-width: 1.0;"/><!--MD5=[15ea3c4c31d8852b02f598ba2dc49d6e]
link Editor to UI Renderer--><path d="M859.25,276.26 C942.49,285.49 1181.8,313.67 1378,353 C1389.63,355.33 1402.13,358.32 1413.63,361.26 " fill="none" id="Editor-&gt;UI Renderer" style="stroke: #A80036; stroke-width: 1.0;"/><polygon fill="#A80036" points="1418.5,362.52,1410.7812,356.4028,1413.6578,361.2736,1408.787,364.1503,1418.5,362.52" style="stroke: #A80036; stroke-width: 1.0;"/><!--MD5=[9c023307a70bcfce253a77ca3d4baa2b]
link UI Renderer to Terminal--><path d="M1456,388.8 C1456,404.91 1456,431.65 1456,449.66 " fill="none" id="UI Renderer-&gt;Terminal" style="stroke: #A80036; stroke-width: 1.0;"/><polygon fill="#A80036" points="1456,454.95,1460,445.95,1456,449.95,1452,445.95,1456,454.95" style="stroke: #A80036; stroke-width: 1.0;"/><!--MD5=[58a59573cee621640e9a81ea8a110ad4]
link Editor to WindowManager--><path d="M805.75,282 C795.01,285.87 782,290.15 770,293 C583.55,337.29 531.62,319.07 343,353 C331.16,355.13 318.52,357.71 306.54,360.3 " fill="none" id="Editor-&gt;WindowManager" style="stroke: #A80036; stroke-width: 1.0;"/><polygon fill="#A80036" points="301.45,361.41,311.0979,363.3893,306.3339,360.339,309.3843,355.575,301.45,361.41" style="stroke: #A80036; stroke-width: 1.0;"/><!--MD5=[0a050ed598c518478a257de67be790ea]
link Editor to Buffer--><path d="M805.7,281.78 C794.94,285.6 781.93,289.9 770,293 C626.55,330.22 584.4,311.94 442,353 C434.26,355.23 426.07,358.22 418.61,361.21 " fill="none" id="Editor-&gt;Buffer" style="stroke: #A80036; stroke-width: 1.0;"/><polygon fill="#A80036" points="413.57,363.28,423.414,363.5887,418.2005,361.3935,420.3956,356.18,413.57,363.28" style="stroke: #A80036; stroke-width: 1.0;"/><!--MD5=[ef1b45169414e719ff3c391641de4091]
link Editor to SearchEngine--><path d="M804.62,281.33 C794,284.95 781.39,289.21 770,293 C698.78,316.7 615.71,343.69 566.89,359.48 " fill="none" id="Editor-&gt;SearchEngine" style="stroke: #A80036; stroke-width: 1.0; stroke-dasharray: 7.0,7.0;"/><polygon fill="#A80036" points="561.98,361.07,571.775,362.0983,566.7361,359.5275,569.307,354.4886,561.98,361.07" style="stroke: #A80036; stroke-width: 1.0;"/><!--MD5=[f040d65145caa5d24fecd5c520137b46]
link Editor to AsyncSyntaxHighlighter--><path d="M815.51,285.26 C797.83,301.33 766.47,329.84 744.3,350 " fill="none" id="Editor-&gt;AsyncSyntaxHighlighter" style="stroke: #A80036; stroke-width: 1.0; stroke-dasharray: 7.0,7.0;"/><polygon fill="#A80036" points="740.55,353.41,749.8966,350.3049,744.2458,350.0424,744.5084,344.3916,740.55,353.41" style="stroke: #A80036; stroke-width: 1.0;"/><!--MD5=[b2a81d8827ccd42a2bf207c88062745f]
link Editor to CommandCompletion--><path d="M842,285.26 C859.17,301.46 889.75,330.31 911.13,350.48 " fill="none" id="Editor-&gt;CommandCompletion" style="stroke: #A80036; stroke-width: 1.0; stroke-dasharray: 7.0,7.0;"/><polygon fill="#A80036" points="915.02,354.15,911.2077,345.0689,911.379,350.7232,905.7247,350.8945,915.02,354.15" style="stroke: #A80036; stroke-width: 1.0;"/><!--MD5=[4a8173c6b0308ea39e54f43c83632819]
link Editor to ConfigWatcher--><path d="M853.39,281.18 C904.19,298.23 1021.88,337.73 1085.08,358.93 " fill="none" id="Editor-&gt;ConfigWatcher" style="stroke: #A80036; stroke-width: 1.0; stroke-dasharray: 7.0,7.0;"/><polygon fill="#A80036" points="1089.91,360.55,1082.6608,353.883,1085.1723,358.9517,1080.1036,361.4633,1089.91,360.55" style="stroke: #A80036; stroke-width: 1.0;"/><!--MD5=[f952ce4ee0cb77ebabb2cfe3f9bbd9b2]
link Editor to ThemeConfig--><path d="M857.49,278.59 C921.3,291.19 1080.49,323.05 1213,353 C1224.03,355.49 1235.86,358.3 1247.01,361.01 " fill="none" id="Editor-&gt;ThemeConfig" style="stroke: #A80036; stroke-width: 1.0; stroke-dasharray: 7.0,7.0;"/><polygon fill="#A80036" points="1252.08,362.24,1244.2854,356.2197,1247.2226,361.0542,1242.3881,363.9915,1252.08,362.24" style="stroke: #A80036; stroke-width: 1.0;"/><!--MD5=[51c99f3ef7457a872c8a3af70cd15025]
@startuml
skinparam componentStyle rectangle
skinparam shadowing false

package "oxidized" {
  [main.rs] - -> (EventDrivenEditor)
  (EventDrivenEditor) ..> (Input Thread)
  (EventDrivenEditor) ..> (Config Watcher Thread)
  (EventDrivenEditor) ..> (Syntax Thread)
  (EventDrivenEditor) ..> (Render Thread)

  (Input Thread) - -> (Event Bus)
  (Config Watcher Thread) - -> (Event Bus)
  (Syntax Thread) - -> (Event Bus)

  (Event Bus) - -> (EventDrivenEditor)
  (EventDrivenEditor) - -> (Editor)
  (Editor) - -> (UI Renderer)
  (UI Renderer) - -> (Terminal)

  (Editor) - -> (WindowManager)
  (Editor) - -> (Buffer)
  (Editor) ..> (SearchEngine)
  (Editor) ..> (AsyncSyntaxHighlighter)
  (Editor) ..> (CommandCompletion)
  (Editor) ..> (ConfigWatcher)
  (Editor) ..> (ThemeConfig)
}
@enduml

PlantUML version 1.2020.02(Sun Mar 01 10:22:07 UTC 2020)
(GPL source distribution)
Java Runtime: OpenJDK Runtime Environment
JVM: OpenJDK 64-Bit Server VM
Java Version: 17.0.16+8
Operating System: Linux
Default Encoding: UTF-8
Language: en
Country: null
--></g></svg>