<?xml version="1.0" encoding="UTF-8" standalone="no"?><svg xmlns="http://www.w3.org/2000/svg" xmlns:xlink="http://www.w3.org/1999/xlink" contentScriptType="application/ecmascript" contentStyleType="text/css" height="539px" preserveAspectRatio="none" style="width:881px;height:539px;" version="1.1" viewBox="0 0 881 539" width="881px" zoomAndPan="magnify"><defs/><g><rect fill="#FFFFFF" height="242.0625" style="stroke: #A80036; stroke-width: 1.0;" width="10" x="557" y="200.8281"/><line style="stroke: #A80036; stroke-width: 1.0; stroke-dasharray: 5.0,5.0;" x1="27" x2="27" y1="82.2969" y2="451.8906"/><line style="stroke: #A80036; stroke-width: 1.0; stroke-dasharray: 5.0,5.0;" x1="107.5" x2="107.5" y1="82.2969" y2="451.8906"/><line style="stroke: #A80036; stroke-width: 1.0; stroke-dasharray: 5.0,5.0;" x1="288" x2="288" y1="82.2969" y2="451.8906"/><line style="stroke: #A80036; stroke-width: 1.0; stroke-dasharray: 5.0,5.0;" x1="412" x2="412" y1="82.2969" y2="451.8906"/><line style="stroke: #A80036; stroke-width: 1.0; stroke-dasharray: 5.0,5.0;" x1="561.5" x2="561.5" y1="82.2969" y2="451.8906"/><line style="stroke: #A80036; stroke-width: 1.0; stroke-dasharray: 5.0,5.0;" x1="716" x2="716" y1="82.2969" y2="451.8906"/><line style="stroke: #A80036; stroke-width: 1.0; stroke-dasharray: 5.0,5.0;" x1="856.5" x2="856.5" y1="82.2969" y2="451.8906"/><text fill="#000000" font-family="sans-serif" font-size="14" lengthAdjust="spacingAndGlyphs" textLength="32" x="8" y="78.9951">User</text><ellipse cx="27" cy="13" fill="#FEFECE" rx="8" ry="8" style="stroke: #A80036; stroke-width: 2.0;"/><path d="M27,21 L27,48 M14,29 L40,29 M27,48 L14,63 M27,48 L40,63 " fill="none" style="stroke: #A80036; stroke-width: 2.0;"/><text fill="#000000" font-family="sans-serif" font-size="14" lengthAdjust="spacingAndGlyphs" textLength="32" x="8" y="463.8857">User</text><ellipse cx="27" cy="477.1875" fill="#FEFECE" rx="8" ry="8" style="stroke: #A80036; stroke-width: 2.0;"/><path d="M27,485.1875 L27,512.1875 M14,493.1875 L40,493.1875 M27,512.1875 L14,527.1875 M27,512.1875 L40,527.1875 " fill="none" style="stroke: #A80036; stroke-width: 2.0;"/><rect fill="#FEFECE" height="30.2969" style="stroke: #A80036; stroke-width: 1.5;" width="73" x="71.5" y="51"/><text fill="#000000" font-family="sans-serif" font-size="14" lengthAdjust="spacingAndGlyphs" textLength="59" x="78.5" y="70.9951">Terminal</text><rect fill="#FEFECE" height="30.2969" style="stroke: #A80036; stroke-width: 1.5;" width="73" x="71.5" y="450.8906"/><text fill="#000000" font-family="sans-serif" font-size="14" lengthAdjust="spacingAndGlyphs" textLength="59" x="78.5" y="470.8857">Terminal</text><rect fill="#FEFECE" height="30.2969" style="stroke: #A80036; stroke-width: 1.5;" width="102" x="237" y="51"/><text fill="#000000" font-family="sans-serif" font-size="14" lengthAdjust="spacingAndGlyphs" textLength="88" x="244" y="70.9951">Input Thread</text><rect fill="#FEFECE" height="30.2969" style="stroke: #A80036; stroke-width: 1.5;" width="102" x="237" y="450.8906"/><text fill="#000000" font-family="sans-serif" font-size="14" lengthAdjust="spacingAndGlyphs" textLength="88" x="244" y="470.8857">Input Thread</text><rect fill="#FEFECE" height="30.2969" style="stroke: #A80036; stroke-width: 1.5;" width="84" x="370" y="51"/><text fill="#000000" font-family="sans-serif" font-size="14" lengthAdjust="spacingAndGlyphs" textLength="70" x="377" y="70.9951">Event Bus</text><rect fill="#FEFECE" height="30.2969" style="stroke: #A80036; stroke-width: 1.5;" width="84" x="370" y="450.8906"/><text fill="#000000" font-family="sans-serif" font-size="14" lengthAdjust="spacingAndGlyphs" textLength="70" x="377" y="470.8857">Event Bus</text><rect fill="#FEFECE" height="30.2969" style="stroke: #A80036; stroke-width: 1.5;" width="137" x="493.5" y="51"/><text fill="#000000" font-family="sans-serif" font-size="14" lengthAdjust="spacingAndGlyphs" textLength="123" x="500.5" y="70.9951">EventDrivenEditor</text><rect fill="#FEFECE" height="30.2969" style="stroke: #A80036; stroke-width: 1.5;" width="137" x="493.5" y="450.8906"/><text fill="#000000" font-family="sans-serif" font-size="14" lengthAdjust="spacingAndGlyphs" textLength="123" x="500.5" y="470.8857">EventDrivenEditor</text><rect fill="#FEFECE" height="30.2969" style="stroke: #A80036; stroke-width: 1.5;" width="54" x="689" y="51"/><text fill="#000000" font-family="sans-serif" font-size="14" lengthAdjust="spacingAndGlyphs" textLength="40" x="696" y="70.9951">Editor</text><rect fill="#FEFECE" height="30.2969" style="stroke: #A80036; stroke-width: 1.5;" width="54" x="689" y="450.8906"/><text fill="#000000" font-family="sans-serif" font-size="14" lengthAdjust="spacingAndGlyphs" textLength="40" x="696" y="470.8857">Editor</text><rect fill="#FEFECE" height="30.2969" style="stroke: #A80036; stroke-width: 1.5;" width="27" x="843.5" y="51"/><text fill="#000000" font-family="sans-serif" font-size="14" lengthAdjust="spacingAndGlyphs" textLength="13" x="850.5" y="70.9951">UI</text><rect fill="#FEFECE" height="30.2969" style="stroke: #A80036; stroke-width: 1.5;" width="27" x="843.5" y="450.8906"/><text fill="#000000" font-family="sans-serif" font-size="14" lengthAdjust="spacingAndGlyphs" textLength="13" x="850.5" y="470.8857">UI</text><rect fill="#FFFFFF" height="242.0625" style="stroke: #A80036; stroke-width: 1.0;" width="10" x="557" y="200.8281"/><polygon fill="#A80036" points="96,109.4297,106,113.4297,96,117.4297,100,113.4297" style="stroke: #A80036; stroke-width: 1.0;"/><line style="stroke: #A80036; stroke-width: 1.0;" x1="27" x2="102" y1="113.4297" y2="113.4297"/><text fill="#000000" font-family="sans-serif" font-size="13" lengthAdjust="spacingAndGlyphs" textLength="57" x="34" y="108.3638">keypress</text><polygon fill="#A80036" points="276,138.5625,286,142.5625,276,146.5625,280,142.5625" style="stroke: #A80036; stroke-width: 1.0;"/><line style="stroke: #A80036; stroke-width: 1.0;" x1="108" x2="282" y1="142.5625" y2="142.5625"/><text fill="#000000" font-family="sans-serif" font-size="13" lengthAdjust="spacingAndGlyphs" textLength="156" x="115" y="137.4966">crossterm::event::read()</text><polygon fill="#A80036" points="400,167.6953,410,171.6953,400,175.6953,404,171.6953" style="stroke: #A80036; stroke-width: 1.0;"/><line style="stroke: #A80036; stroke-width: 1.0;" x1="288" x2="406" y1="171.6953" y2="171.6953"/><text fill="#000000" font-family="sans-serif" font-size="13" lengthAdjust="spacingAndGlyphs" textLength="100" x="295" y="166.6294">Input(KeyPress)</text><polygon fill="#A80036" points="545,196.8281,555,200.8281,545,204.8281,549,200.8281" style="stroke: #A80036; stroke-width: 1.0;"/><line style="stroke: #A80036; stroke-width: 1.0;" x1="412" x2="551" y1="200.8281" y2="200.8281"/><text fill="#000000" font-family="sans-serif" font-size="13" lengthAdjust="spacingAndGlyphs" textLength="113" x="419" y="195.7622">EditorEvent::Input</text><polygon fill="#A80036" points="704,225.9609,714,229.9609,704,233.9609,708,229.9609" style="stroke: #A80036; stroke-width: 1.0;"/><line style="stroke: #A80036; stroke-width: 1.0;" x1="567" x2="710" y1="229.9609" y2="229.9609"/><text fill="#000000" font-family="sans-serif" font-size="13" lengthAdjust="spacingAndGlyphs" textLength="125" x="574" y="224.895">handle_key_event()</text><polygon fill="#A80036" points="578,255.0938,568,259.0938,578,263.0938,574,259.0938" style="stroke: #A80036; stroke-width: 1.0;"/><line style="stroke: #A80036; stroke-width: 1.0; stroke-dasharray: 2.0,2.0;" x1="572" x2="715" y1="259.0938" y2="259.0938"/><text fill="#000000" font-family="sans-serif" font-size="13" lengthAdjust="spacingAndGlyphs" textLength="99" x="584" y="254.0278">state changed?</text><polygon fill="#A80036" points="423,284.2266,413,288.2266,423,292.2266,419,288.2266" style="stroke: #A80036; stroke-width: 1.0;"/><line style="stroke: #A80036; stroke-width: 1.0;" x1="417" x2="556" y1="288.2266" y2="288.2266"/><text fill="#000000" font-family="sans-serif" font-size="13" lengthAdjust="spacingAndGlyphs" textLength="121" x="429" y="283.1606">UI(RedrawRequest)</text><polygon fill="#A80036" points="545,313.3594,555,317.3594,545,321.3594,549,317.3594" style="stroke: #A80036; stroke-width: 1.0;"/><line style="stroke: #A80036; stroke-width: 1.0;" x1="412" x2="551" y1="317.3594" y2="317.3594"/><text fill="#000000" font-family="sans-serif" font-size="13" lengthAdjust="spacingAndGlyphs" textLength="121" x="419" y="312.2935">UI(RedrawRequest)</text><polygon fill="#A80036" points="704,342.4922,714,346.4922,704,350.4922,708,346.4922" style="stroke: #A80036; stroke-width: 1.0;"/><line style="stroke: #A80036; stroke-width: 1.0;" x1="567" x2="710" y1="346.4922" y2="346.4922"/><text fill="#000000" font-family="sans-serif" font-size="13" lengthAdjust="spacingAndGlyphs" textLength="52" x="574" y="341.4263">render()</text><polygon fill="#A80036" points="845,371.625,855,375.625,845,379.625,849,375.625" style="stroke: #A80036; stroke-width: 1.0;"/><line style="stroke: #A80036; stroke-width: 1.0;" x1="716" x2="851" y1="375.625" y2="375.625"/><text fill="#000000" font-family="sans-serif" font-size="13" lengthAdjust="spacingAndGlyphs" textLength="117" x="723" y="370.5591">draw(editor_state)</text><polygon fill="#A80036" points="119,400.7578,109,404.7578,119,408.7578,115,404.7578" style="stroke: #A80036; stroke-width: 1.0;"/><line style="stroke: #A80036; stroke-width: 1.0;" x1="113" x2="856" y1="404.7578" y2="404.7578"/><text fill="#000000" font-family="sans-serif" font-size="13" lengthAdjust="spacingAndGlyphs" textLength="74" x="125" y="399.6919">paint frame</text><polygon fill="#A80036" points="38,429.8906,28,433.8906,38,437.8906,34,433.8906" style="stroke: #A80036; stroke-width: 1.0;"/><line style="stroke: #A80036; stroke-width: 1.0; stroke-dasharray: 2.0,2.0;" x1="32" x2="556" y1="433.8906" y2="433.8906"/><text fill="#000000" font-family="sans-serif" font-size="13" lengthAdjust="spacingAndGlyphs" textLength="100" x="44" y="428.8247">updated screen</text><!--MD5=[7ba736e23b27d997158b95ddb37eb503]
@startuml
skinparam shadowing false

actor User as U
participant Terminal as T
participant "Input Thread" as IT
participant "Event Bus" as EB
participant EventDrivenEditor as EDE
participant Editor as ED
participant UI as UI

U -> T : keypress
T -> IT : crossterm::event::read()
IT -> EB : Input(KeyPress)
EB -> EDE : EditorEvent::Input
activate EDE
EDE -> ED : handle_key_event()
ED - -> EDE : state changed?
EDE -> EB : UI(RedrawRequest)
EB -> EDE : UI(RedrawRequest)
EDE -> ED : render()
ED -> UI : draw(editor_state)
UI -> T : paint frame
EDE - -> U : updated screen
@enduml

PlantUML version 1.2020.02(Sun Mar 01 10:22:07 UTC 2020)
(GPL source distribution)
Java Runtime: OpenJDK Runtime Environment
JVM: OpenJDK 64-Bit Server VM
Java Version: 17.0.16+8
Operating System: Linux
Default Encoding: UTF-8
Language: en
Country: null
--></g></svg>